<?xml version="1.0" encoding="UTF-8" standalone="no"?><!DOCTYPE svg PUBLIC "-//W3C//DTD SVG 1.1//EN" "http://www.w3.org/Graphics/SVG/1.1/DTD/svg11.dtd"><svg width="100%" height="100%" viewBox="0 0 1080 963" version="1.1" xmlns="http://www.w3.org/2000/svg" xmlns:xlink="http://www.w3.org/1999/xlink" xml:space="preserve" xmlns:serif="http://www.serif.com/" style="fill-rule:evenodd;clip-rule:evenodd;stroke-linecap:round;stroke-linejoin:round;stroke-miterlimit:1.5;"><rect id="Mesa-de-trabajo1" serif:id="Mesa de trabajo1" x="0" y="0" width="1080" height="962.974" style="fill:none;"/><g><clipPath id="_clip1"><rect x="39.463" y="68.732" width="990.383" height="365.18"/></clipPath><g clip-path="url(#_clip1)"><g><clipPath id="_clip2"><rect x="94.649" y="170.635" width="887.512" height="799.336"/></clipPath><g clip-path="url(#_clip2)"><path d="M288.556,166.801c-21.399,21.278 -90.336,92.042 -118.896,216.442c-19.454,84.734 -10.455,155.149 -6.04,184.389c5.713,37.835 19.635,99.163 58.854,165.363c36.394,61.431 90.806,118.628 162.445,155.18c1.302,0.664 1.419,0.527 2.383,1.626c1.365,1.556 1.252,3.322 1.232,3.628c-0.137,2.14 -1.509,3.336 -1.747,3.544c-1.559,1.359 -3.322,1.251 -3.628,1.232c-1.474,-0.091 -1.439,-0.261 -2.768,-0.902c-83.769,-40.383 -149.161,-110.22 -188.747,-190.39c-12.95,-26.226 -34.5,-75.89 -43.779,-144.103c-0.478,-3.514 -2.148,-17.196 -3.001,-31.647c-7.247,-122.846 32.733,-241.381 109.218,-329.262c16.751,-19.247 32.036,-32.886 34.473,-35.101Z"/></g><path d="M262.393,676.781c0,0 15.049,66.084 18.974,81.132c3.926,15.049 -0,34.678 -7.197,46.455c-7.197,11.777 -9.16,-14.394 -16.357,-33.369c-7.197,-18.974 -7.197,-12.432 -9.16,-31.406c-1.963,-18.974 17.012,-37.295 13.74,-62.812Z" style="fill:#d9b97a;"/><path d="M147.423,736.492c0,0 51.851,43.647 63.43,54.029c11.579,10.383 30.826,15.884 44.592,14.881c13.766,-1.003 -8.6,-14.736 -22.17,-29.825c-13.57,-15.089 -7.754,-12.092 -23.722,-22.528c-15.968,-10.436 -40.944,-1.961 -62.129,-16.557Z" style="fill:#d9b97a;"/><path d="M94.65,412.425c0,0 0.579,54.681 17.594,83.729c7.198,12.289 18.742,25.376 30.896,29.718c12.155,4.342 0.112,-9.171 -4.353,-27.332c-4.466,-18.161 -1.976,-22.795 -10.652,-37.846c-8.676,-15.051 -22.325,-19.278 -33.484,-48.27Z"/><path d="M119.694,338.359c0,0 -11.548,51.039 0.239,74.434c4.987,9.897 14.457,19.574 26.529,20.933c12.072,1.358 2.161,-8.607 1.413,-24.607c-0.748,-16 2.953,-20.89 -3.004,-33.044c-5.957,-12.153 -19.658,-13.071 -25.176,-37.716Z"/><path d="M217.731,358.354c0,0 -9.041,51.542 -28.943,68.577c-8.42,7.207 -20.891,12.48 -32.552,9.074c-11.661,-3.405 1.327,-8.774 8.192,-23.246c6.865,-14.472 5.337,-20.412 15.522,-29.325c10.185,-8.913 23.179,-4.473 37.78,-25.08Z"/><path d="M247.227,289.614c0,0 -18.551,49.902 -43.56,69.171c-10.58,8.152 -25.365,15.152 -37.821,13.868c-12.456,-1.285 2.921,-8.46 12.959,-23.182c10.037,-14.722 9.307,-20.051 22.138,-30.095c12.831,-10.045 26.604,-8.007 46.284,-29.761Z"/><path d="M158.458,248.179c0,0 -21.997,52.336 -17.721,86.976c1.809,14.655 7.441,31.849 17.262,40.962c9.821,9.113 3.889,-8.692 7.112,-27.823c3.223,-19.131 7.512,-22.527 5.431,-40.419c-2.082,-17.892 -13.378,-27.506 -12.084,-59.696Z"/><path d="M187.65,310.396c0,0 -19.89,-36.64 -9.422,-62.812c10.469,-26.172 25.125,-77.992 31.406,-89.507c6.281,-11.516 -1.57,15.703 0.523,37.687c2.094,21.984 8.375,29.836 1.047,47.632c-7.328,17.797 -14.656,25.648 -15.18,35.594c-0.523,9.945 -8.375,31.406 -8.375,31.406Z"/><path d="M185.751,298.215c0,0 36.641,3.593 51.571,-15.807c14.931,-19.4 47.259,-52.408 53.065,-62.435c5.806,-10.027 -11.104,7.446 -28.606,14.051c-17.501,6.604 -26.273,4.037 -36.33,17.415c-10.057,13.379 -12.629,22.926 -19.876,27.223c-7.247,4.297 -19.824,19.553 -19.824,19.553Z"/><path d="M232.747,222.707c0,0 32.799,8.204 46.985,-8.816c14.186,-17.02 44.55,-45.09 50.164,-54.132c5.615,-9.042 -10.276,5.844 -26.27,10.046c-15.994,4.202 -23.778,0.572 -33.347,12.34c-9.568,11.768 -12.256,20.757 -18.941,24.021c-6.685,3.264 -18.592,16.542 -18.592,16.542Z"/><path d="M234.468,226.617c0,0 -12.702,-36.479 2.381,-57.491c15.082,-21.012 39.002,-63.858 47.278,-72.761c8.276,-8.903 -4.438,13.57 -6.45,33.446c-2.012,19.876 2.686,28.106 -7.775,42.351c-10.461,14.246 -19.085,19.693 -21.434,28.384c-2.35,8.691 -14,26.071 -14,26.071Z"/><path d="M256.609,200.876c0,0 29.063,-62.81 44.138,-74.116c15.075,-11.306 62.812,-43.968 62.812,-43.968c0,0 -37.687,50.25 -59.043,73.281c-21.356,23.031 -47.907,44.804 -47.907,44.804Z"/><path d="M209.379,426.002c0,0 -3.503,51.111 -21.316,75.757c-7.536,10.426 -19.265,20.948 -31.106,23.191c-11.84,2.243 0.388,-8.603 5.631,-24.938c5.244,-16.334 3.117,-21.046 12.213,-33.838c9.096,-12.791 22.358,-14.702 34.578,-40.173Z" style="fill:#d9b97a;"/><path d="M242.106,616.907c0,0 -0.496,67.774 -0.123,83.321c0.373,15.548 -7.947,33.755 -17.652,43.569c-9.705,9.814 -5.618,-16.111 -8.275,-36.229c-2.657,-20.119 -4.157,-13.75 -1.719,-32.669c2.438,-18.919 25.106,-32.404 27.769,-57.992Z" style="fill:#d9b97a;"/><path d="M112.557,665.727c0,0 49.811,45.96 60.906,56.859c11.095,10.899 30.071,17.27 43.869,16.894c13.797,-0.376 -7.921,-15.112 -20.79,-30.803c-12.87,-15.691 -7.196,-12.432 -22.673,-23.584c-15.477,-11.152 -40.813,-3.821 -61.312,-19.366Z" style="fill:#d9b97a;"/><path d="M99.778,587.109c0,0 33.131,46.493 40.36,57.467c7.229,10.974 22.381,18.281 34.535,18.916c12.154,0.635 -3.496,-14.683 -11.189,-30.26c-7.693,-15.577 -3.47,-12.128 -14.475,-23.651c-11.005,-11.523 -34.832,-6.486 -49.232,-22.472Z" style="fill:#d9b97a;"/><path d="M164.095,592.003c0,0 -10.992,-36.117 4.187,-54.437c15.18,-18.32 25.125,-24.601 31.929,-40.304c6.805,-15.703 6.281,-13.609 6.281,-13.609c0,0 -14.133,54.961 -14.656,73.281c-0.523,18.32 -5.234,24.601 -27.742,35.07Z" style="fill:#d9b97a;"/><path d="M157.81,598.79c0,0 0.104,-37.752 -19.716,-50.914c-19.82,-13.161 -31.155,-16.306 -42.201,-29.377c-11.046,-13.072 -9.941,-11.218 -9.941,-11.218c0,0 29.39,48.545 35.177,65.935c5.787,17.39 12.11,22.045 36.681,25.574Z" style="fill:#d9b97a;"/><path d="M211.961,570.48c0,0 1.847,57.822 2.753,71.104c0.906,13.282 -6.718,28.533 -16.005,36.574c-9.287,8.041 -6.128,-13.943 -9.458,-31.204c-3.33,-17.262 -4.598,-11.878 -2.833,-27.94c1.765,-16.062 23.783,-26.787 25.542,-48.533Z" style="fill:#d9b97a;"/></g><g><clipPath id="_clip3"><rect x="81.448" y="170.635" width="887.512" height="799.336"/></clipPath><g clip-path="url(#_clip3)"><path d="M775.054,166.801c20.626,18.747 108.184,99.052 136.288,247.543c13.371,70.647 7.035,127.479 4.536,147.456c-1.297,10.369 -3.477,22.109 -3.832,24.023c-16.714,90.042 -54.314,149.583 -71.401,174.51c-27.834,40.608 -78.059,98.82 -158.242,137.36c-1.908,0.917 -3.593,0.345 -3.888,0.244c-0.615,-0.209 -1.204,-0.539 -1.694,-0.966c-0.238,-0.208 -1.61,-1.404 -1.747,-3.544c-0.02,-0.306 -0.132,-2.072 1.232,-3.628c0.964,-1.099 1.081,-0.962 2.383,-1.626c108.699,-55.449 159.4,-148.799 171.958,-172.076c39.166,-72.599 48.125,-137.935 51.252,-162.155c8.213,-63.622 1.732,-113.52 -0.354,-128.944c-8.918,-65.943 -29.91,-114.978 -42.661,-141.06c-30.506,-62.401 -67.556,-100.955 -83.831,-117.139Z"/></g><path d="M801.216,676.781c0,0 -15.049,66.084 -18.974,81.132c-3.926,15.049 0,34.678 7.197,46.455c7.197,11.777 9.16,-14.394 16.357,-33.369c7.197,-18.974 7.197,-12.432 9.16,-31.406c1.963,-18.974 -17.012,-37.295 -13.74,-62.812Z" style="fill:#d9b97a;"/><path d="M916.186,736.492c0,0 -51.851,43.647 -63.43,54.029c-11.579,10.383 -30.826,15.884 -44.592,14.881c-13.766,-1.003 8.6,-14.736 22.17,-29.825c13.57,-15.089 7.754,-12.092 23.722,-22.528c15.968,-10.436 40.944,-1.961 62.129,-16.557Z" style="fill:#d9b97a;"/><path d="M968.959,412.425c0,0 -0.579,54.681 -17.594,83.729c-7.198,12.289 -18.742,25.376 -30.896,29.718c-12.155,4.342 -0.112,-9.171 4.353,-27.332c4.466,-18.161 1.976,-22.795 10.652,-37.846c8.676,-15.051 22.325,-19.278 33.484,-48.27Z"/><path d="M943.915,338.359c0,0 11.548,51.039 -0.239,74.434c-4.987,9.897 -14.457,19.574 -26.529,20.933c-12.072,1.358 -2.161,-8.607 -1.413,-24.607c0.748,-16 -2.953,-20.89 3.004,-33.044c5.957,-12.153 19.658,-13.071 25.176,-37.716Z"/><path d="M845.879,358.354c0,0 9.041,51.542 28.943,68.577c8.42,7.207 20.891,12.48 32.552,9.074c11.661,-3.405 -1.327,-8.774 -8.192,-23.246c-6.865,-14.472 -5.337,-20.412 -15.522,-29.325c-10.185,-8.913 -23.179,-4.473 -37.78,-25.08Z"/><path d="M816.383,289.614c0,0 18.551,49.902 43.56,69.171c10.58,8.152 25.365,15.152 37.821,13.868c12.456,-1.285 -2.921,-8.46 -12.959,-23.182c-10.037,-14.722 -9.307,-20.051 -22.138,-30.095c-12.831,-10.045 -26.604,-8.007 -46.284,-29.761Z"/><path d="M905.151,248.179c0,0 21.997,52.336 17.721,86.976c-1.809,14.655 -7.441,31.849 -17.262,40.962c-9.821,9.113 -3.889,-8.692 -7.112,-27.823c-3.223,-19.131 -7.512,-22.527 -5.431,-40.419c2.082,-17.892 13.378,-27.506 12.084,-59.696Z"/><path d="M875.959,310.396c0,0 19.89,-36.64 9.422,-62.812c-10.469,-26.172 -25.125,-77.992 -31.406,-89.507c-6.281,-11.516 1.57,15.703 -0.523,37.687c-2.094,21.984 -8.375,29.836 -1.047,47.632c7.328,17.797 14.656,25.648 15.18,35.594c0.523,9.945 8.375,31.406 8.375,31.406Z"/><path d="M877.858,298.215c0,0 -36.641,3.593 -51.571,-15.807c-14.931,-19.4 -47.259,-52.408 -53.065,-62.435c-5.806,-10.027 11.104,7.446 28.606,14.051c17.501,6.604 26.273,4.037 36.33,17.415c10.057,13.379 12.629,22.926 19.876,27.223c7.247,4.297 19.824,19.553 19.824,19.553Z"/><path d="M830.863,222.707c0,0 -32.799,8.204 -46.985,-8.816c-14.186,-17.02 -44.55,-45.09 -50.164,-54.132c-5.615,-9.042 10.276,5.844 26.27,10.046c15.994,4.202 23.778,0.572 33.347,12.34c9.568,11.768 12.256,20.757 18.941,24.021c6.685,3.264 18.592,16.542 18.592,16.542Z"/><path d="M829.141,226.617c0,0 12.702,-36.479 -2.381,-57.491c-15.082,-21.012 -39.002,-63.858 -47.278,-72.761c-8.276,-8.903 4.438,13.57 6.45,33.446c2.012,19.876 -2.686,28.106 7.775,42.351c10.461,14.246 19.085,19.693 21.434,28.384c2.35,8.691 14,26.071 14,26.071Z"/><path d="M807.001,200.876c0,0 -29.063,-62.81 -44.138,-74.116c-15.075,-11.306 -62.812,-43.968 -62.812,-43.968c0,0 37.687,50.25 59.043,73.281c21.356,23.031 47.907,44.804 47.907,44.804Z"/><path d="M854.23,426.002c0,0 3.503,51.111 21.316,75.757c7.536,10.426 19.265,20.948 31.106,23.191c11.84,2.243 -0.388,-8.603 -5.631,-24.938c-5.244,-16.334 -3.117,-21.046 -12.213,-33.838c-9.096,-12.791 -22.358,-14.702 -34.578,-40.173Z" style="fill:#d9b97a;"/><path d="M821.503,616.907c0,0 0.496,67.774 0.123,83.321c-0.373,15.548 7.947,33.755 17.652,43.569c9.705,9.814 5.618,-16.111 8.275,-36.229c2.657,-20.119 4.157,-13.75 1.719,-32.669c-2.438,-18.919 -25.106,-32.404 -27.769,-57.992Z" style="fill:#d9b97a;"/><path d="M951.052,665.727c0,0 -49.811,45.96 -60.906,56.859c-11.095,10.899 -30.071,17.27 -43.869,16.894c-13.797,-0.376 7.921,-15.112 20.79,-30.803c12.87,-15.691 7.196,-12.432 22.673,-23.584c15.477,-11.152 40.813,-3.821 61.312,-19.366Z" style="fill:#d9b97a;"/><path d="M963.832,587.109c0,0 -33.131,46.493 -40.36,57.467c-7.229,10.974 -22.381,18.281 -34.535,18.916c-12.154,0.635 3.496,-14.683 11.189,-30.26c7.693,-15.577 3.47,-12.128 14.475,-23.651c11.005,-11.523 34.832,-6.486 49.232,-22.472Z" style="fill:#d9b97a;"/><path d="M899.514,592.003c0,0 10.992,-36.117 -4.187,-54.437c-15.18,-18.32 -25.125,-24.601 -31.929,-40.304c-6.805,-15.703 -6.281,-13.609 -6.281,-13.609c0,0 14.133,54.961 14.656,73.281c0.523,18.32 5.234,24.601 27.742,35.07Z" style="fill:#d9b97a;"/><path d="M905.799,598.79c0,0 -0.104,-37.752 19.716,-50.914c19.82,-13.161 31.155,-16.306 42.201,-29.377c11.046,-13.072 9.941,-11.218 9.941,-11.218c0,0 -29.39,48.545 -35.177,65.935c-5.787,17.39 -12.11,22.045 -36.681,25.574Z" style="fill:#d9b97a;"/><path d="M851.648,570.48c0,0 -1.847,57.822 -2.753,71.104c-0.906,13.282 6.718,28.533 16.005,36.574c9.287,8.041 6.128,-13.943 9.458,-31.204c3.33,-17.262 4.598,-11.878 2.833,-27.94c-1.765,-16.062 -23.783,-26.787 -25.542,-48.533Z" style="fill:#d9b97a;"/></g></g></g><g><clipPath id="_clip4"><rect x="39.463" y="689.844" width="990.383" height="365.18"/></clipPath><g clip-path="url(#_clip4)"><g><clipPath id="_clip5"><rect x="94.649" y="170.635" width="887.512" height="799.336"/></clipPath><g clip-path="url(#_clip5)"><path d="M288.556,166.801c-21.399,21.278 -90.336,92.042 -118.896,216.442c-19.454,84.734 -10.455,155.149 -6.04,184.389c5.713,37.835 19.635,99.163 58.854,165.363c36.394,61.431 90.806,118.628 162.445,155.18c1.302,0.664 1.419,0.527 2.383,1.626c1.365,1.556 1.252,3.322 1.232,3.628c-0.137,2.14 -1.509,3.336 -1.747,3.544c-1.559,1.359 -3.322,1.251 -3.628,1.232c-1.474,-0.091 -1.439,-0.261 -2.768,-0.902c-83.769,-40.383 -149.161,-110.22 -188.747,-190.39c-12.95,-26.226 -34.5,-75.89 -43.779,-144.103c-0.478,-3.514 -2.148,-17.196 -3.001,-31.647c-7.247,-122.846 32.733,-241.381 109.218,-329.262c16.751,-19.247 32.036,-32.886 34.473,-35.101Z"/></g><path d="M262.393,676.781c0,0 15.049,66.084 18.974,81.132c3.926,15.049 -0,34.678 -7.197,46.455c-7.197,11.777 -9.16,-14.394 -16.357,-33.369c-7.197,-18.974 -7.197,-12.432 -9.16,-31.406c-1.963,-18.974 17.012,-37.295 13.74,-62.812Z"/><path d="M147.423,736.492c0,0 51.851,43.647 63.43,54.029c11.579,10.383 30.826,15.884 44.592,14.881c13.766,-1.003 -8.6,-14.736 -22.17,-29.825c-13.57,-15.089 -7.754,-12.092 -23.722,-22.528c-15.968,-10.436 -40.944,-1.961 -62.129,-16.557Z"/><path d="M94.65,412.425c0,0 0.579,54.681 17.594,83.729c7.198,12.289 18.742,25.376 30.896,29.718c12.155,4.342 0.112,-9.171 -4.353,-27.332c-4.466,-18.161 -1.976,-22.795 -10.652,-37.846c-8.676,-15.051 -22.325,-19.278 -33.484,-48.27Z" style="fill:#d9b97a;"/><path d="M119.694,338.359c0,0 -11.548,51.039 0.239,74.434c4.987,9.897 14.457,19.574 26.529,20.933c12.072,1.358 2.161,-8.607 1.413,-24.607c-0.748,-16 2.953,-20.89 -3.004,-33.044c-5.957,-12.153 -19.658,-13.071 -25.176,-37.716Z" style="fill:#d9b97a;"/><path d="M217.731,358.354c0,0 -9.041,51.542 -28.943,68.577c-8.42,7.207 -20.891,12.48 -32.552,9.074c-11.661,-3.405 1.327,-8.774 8.192,-23.246c6.865,-14.472 5.337,-20.412 15.522,-29.325c10.185,-8.913 23.179,-4.473 37.78,-25.08Z" style="fill:#d9b97a;"/><path d="M247.227,289.614c0,0 -18.551,49.902 -43.56,69.171c-10.58,8.152 -25.365,15.152 -37.821,13.868c-12.456,-1.285 2.921,-8.46 12.959,-23.182c10.037,-14.722 9.307,-20.051 22.138,-30.095c12.831,-10.045 26.604,-8.007 46.284,-29.761Z" style="fill:#d9b97a;"/><path d="M158.458,248.179c0,0 -21.997,52.336 -17.721,86.976c1.809,14.655 7.441,31.849 17.262,40.962c9.821,9.113 3.889,-8.692 7.112,-27.823c3.223,-19.131 7.512,-22.527 5.431,-40.419c-2.082,-17.892 -13.378,-27.506 -12.084,-59.696Z" style="fill:#d9b97a;"/><path d="M187.65,310.396c0,0 -19.89,-36.64 -9.422,-62.812c10.469,-26.172 25.125,-77.992 31.406,-89.507c6.281,-11.516 -1.57,15.703 0.523,37.687c2.094,21.984 8.375,29.836 1.047,47.632c-7.328,17.797 -14.656,25.648 -15.18,35.594c-0.523,9.945 -8.375,31.406 -8.375,31.406Z" style="fill:#d9b97a;"/><path d="M185.751,298.215c0,0 36.641,3.593 51.571,-15.807c14.931,-19.4 47.259,-52.408 53.065,-62.435c5.806,-10.027 -11.104,7.446 -28.606,14.051c-17.501,6.604 -26.273,4.037 -36.33,17.415c-10.057,13.379 -12.629,22.926 -19.876,27.223c-7.247,4.297 -19.824,19.553 -19.824,19.553Z" style="fill:#d9b97a;"/><path d="M232.747,222.707c0,0 32.799,8.204 46.985,-8.816c14.186,-17.02 44.55,-45.09 50.164,-54.132c5.615,-9.042 -10.276,5.844 -26.27,10.046c-15.994,4.202 -23.778,0.572 -33.347,12.34c-9.568,11.768 -12.256,20.757 -18.941,24.021c-6.685,3.264 -18.592,16.542 -18.592,16.542Z" style="fill:#d9b97a;"/><path d="M234.468,226.617c0,0 -12.702,-36.479 2.381,-57.491c15.082,-21.012 39.002,-63.858 47.278,-72.761c8.276,-8.903 -4.438,13.57 -6.45,33.446c-2.012,19.876 2.686,28.106 -7.775,42.351c-10.461,14.246 -19.085,19.693 -21.434,28.384c-2.35,8.691 -14,26.071 -14,26.071Z" style="fill:#d9b97a;"/><path d="M256.609,200.876c0,0 29.063,-62.81 44.138,-74.116c15.075,-11.306 62.812,-43.968 62.812,-43.968c0,0 -37.687,50.25 -59.043,73.281c-21.356,23.031 -47.907,44.804 -47.907,44.804Z" style="fill:#d9b97a;"/><path d="M209.379,426.002c0,0 -3.503,51.111 -21.316,75.757c-7.536,10.426 -19.265,20.948 -31.106,23.191c-11.84,2.243 0.388,-8.603 5.631,-24.938c5.244,-16.334 3.117,-21.046 12.213,-33.838c9.096,-12.791 22.358,-14.702 34.578,-40.173Z" style="fill:#d9b97a;"/><path d="M242.106,616.907c0,0 -0.496,67.774 -0.123,83.321c0.373,15.548 -7.947,33.755 -17.652,43.569c-9.705,9.814 -5.618,-16.111 -8.275,-36.229c-2.657,-20.119 -4.157,-13.75 -1.719,-32.669c2.438,-18.919 25.106,-32.404 27.769,-57.992Z"/><path d="M112.557,665.727c0,0 49.811,45.96 60.906,56.859c11.095,10.899 30.071,17.27 43.869,16.894c13.797,-0.376 -7.921,-15.112 -20.79,-30.803c-12.87,-15.691 -7.196,-12.432 -22.673,-23.584c-15.477,-11.152 -40.813,-3.821 -61.312,-19.366Z"/><path d="M99.778,587.109c0,0 33.131,46.493 40.36,57.467c7.229,10.974 22.381,18.281 34.535,18.916c12.154,0.635 -3.496,-14.683 -11.189,-30.26c-7.693,-15.577 -3.47,-12.128 -14.475,-23.651c-11.005,-11.523 -34.832,-6.486 -49.232,-22.472Z" style="fill:#d9b97a;"/><path d="M164.095,592.003c0,0 -10.992,-36.117 4.187,-54.437c15.18,-18.32 25.125,-24.601 31.929,-40.304c6.805,-15.703 6.281,-13.609 6.281,-13.609c0,0 -14.133,54.961 -14.656,73.281c-0.523,18.32 -5.234,24.601 -27.742,35.07Z" style="fill:#d9b97a;"/><path d="M157.81,598.79c0,0 0.104,-37.752 -19.716,-50.914c-19.82,-13.161 -31.155,-16.306 -42.201,-29.377c-11.046,-13.072 -9.941,-11.218 -9.941,-11.218c0,0 29.39,48.545 35.177,65.935c5.787,17.39 12.11,22.045 36.681,25.574Z" style="fill:#d9b97a;"/><path d="M211.961,570.48c0,0 1.847,57.822 2.753,71.104c0.906,13.282 -6.718,28.533 -16.005,36.574c-9.287,8.041 -6.128,-13.943 -9.458,-31.204c-3.33,-17.262 -4.598,-11.878 -2.833,-27.94c1.765,-16.062 23.783,-26.787 25.542,-48.533Z" style="fill:#d9b97a;"/></g><g><clipPath id="_clip6"><rect x="81.448" y="170.635" width="887.512" height="799.336"/></clipPath><g clip-path="url(#_clip6)"><path d="M775.054,166.801c20.626,18.747 108.184,99.052 136.288,247.543c13.371,70.647 7.035,127.479 4.536,147.456c-1.297,10.369 -3.477,22.109 -3.832,24.023c-16.714,90.042 -54.314,149.583 -71.401,174.51c-27.834,40.608 -78.059,98.82 -158.242,137.36c-1.908,0.917 -3.593,0.345 -3.888,0.244c-0.615,-0.209 -1.204,-0.539 -1.694,-0.966c-0.238,-0.208 -1.61,-1.404 -1.747,-3.544c-0.02,-0.306 -0.132,-2.072 1.232,-3.628c0.964,-1.099 1.081,-0.962 2.383,-1.626c108.699,-55.449 159.4,-148.799 171.958,-172.076c39.166,-72.599 48.125,-137.935 51.252,-162.155c8.213,-63.622 1.732,-113.52 -0.354,-128.944c-8.918,-65.943 -29.91,-114.978 -42.661,-141.06c-30.506,-62.401 -67.556,-100.955 -83.831,-117.139Z" style="fill:#0e0b06;"/></g><path d="M801.216,676.781c0,0 -15.049,66.084 -18.974,81.132c-3.926,15.049 0,34.678 7.197,46.455c7.197,11.777 9.16,-14.394 16.357,-33.369c7.197,-18.974 7.197,-12.432 9.16,-31.406c1.963,-18.974 -17.012,-37.295 -13.74,-62.812Z"/><path d="M916.186,736.492c0,0 -51.851,43.647 -63.43,54.029c-11.579,10.383 -30.826,15.884 -44.592,14.881c-13.766,-1.003 8.6,-14.736 22.17,-29.825c13.57,-15.089 7.754,-12.092 23.722,-22.528c15.968,-10.436 40.944,-1.961 62.129,-16.557Z"/><path d="M968.959,412.425c0,0 -0.579,54.681 -17.594,83.729c-7.198,12.289 -18.742,25.376 -30.896,29.718c-12.155,4.342 -0.112,-9.171 4.353,-27.332c4.466,-18.161 1.976,-22.795 10.652,-37.846c8.676,-15.051 22.325,-19.278 33.484,-48.27Z" style="fill:#d9b97a;"/><path d="M943.915,338.359c0,0 11.548,51.039 -0.239,74.434c-4.987,9.897 -14.457,19.574 -26.529,20.933c-12.072,1.358 -2.161,-8.607 -1.413,-24.607c0.748,-16 -2.953,-20.89 3.004,-33.044c5.957,-12.153 19.658,-13.071 25.176,-37.716Z" style="fill:#d9b97a;"/><path d="M845.879,358.354c0,0 9.041,51.542 28.943,68.577c8.42,7.207 20.891,12.48 32.552,9.074c11.661,-3.405 -1.327,-8.774 -8.192,-23.246c-6.865,-14.472 -5.337,-20.412 -15.522,-29.325c-10.185,-8.913 -23.179,-4.473 -37.78,-25.08Z" style="fill:#d9b97a;"/><path d="M816.383,289.614c0,0 18.551,49.902 43.56,69.171c10.58,8.152 25.365,15.152 37.821,13.868c12.456,-1.285 -2.921,-8.46 -12.959,-23.182c-10.037,-14.722 -9.307,-20.051 -22.138,-30.095c-12.831,-10.045 -26.604,-8.007 -46.284,-29.761Z" style="fill:#d9b97a;"/><path d="M905.151,248.179c0,0 21.997,52.336 17.721,86.976c-1.809,14.655 -7.441,31.849 -17.262,40.962c-9.821,9.113 -3.889,-8.692 -7.112,-27.823c-3.223,-19.131 -7.512,-22.527 -5.431,-40.419c2.082,-17.892 13.378,-27.506 12.084,-59.696Z" style="fill:#d9b97a;"/><path d="M875.959,310.396c0,0 19.89,-36.64 9.422,-62.812c-10.469,-26.172 -25.125,-77.992 -31.406,-89.507c-6.281,-11.516 1.57,15.703 -0.523,37.687c-2.094,21.984 -8.375,29.836 -1.047,47.632c7.328,17.797 14.656,25.648 15.18,35.594c0.523,9.945 8.375,31.406 8.375,31.406Z" style="fill:#d9b97a;"/><path d="M877.858,298.215c0,0 -36.641,3.593 -51.571,-15.807c-14.931,-19.4 -47.259,-52.408 -53.065,-62.435c-5.806,-10.027 11.104,7.446 28.606,14.051c17.501,6.604 26.273,4.037 36.33,17.415c10.057,13.379 12.629,22.926 19.876,27.223c7.247,4.297 19.824,19.553 19.824,19.553Z" style="fill:#d9b97a;"/><path d="M830.863,222.707c0,0 -32.799,8.204 -46.985,-8.816c-14.186,-17.02 -44.55,-45.09 -50.164,-54.132c-5.615,-9.042 10.276,5.844 26.27,10.046c15.994,4.202 23.778,0.572 33.347,12.34c9.568,11.768 12.256,20.757 18.941,24.021c6.685,3.264 18.592,16.542 18.592,16.542Z" style="fill:#d9b97a;"/><path d="M829.141,226.617c0,0 12.702,-36.479 -2.381,-57.491c-15.082,-21.012 -39.002,-63.858 -47.278,-72.761c-8.276,-8.903 4.438,13.57 6.45,33.446c2.012,19.876 -2.686,28.106 7.775,42.351c10.461,14.246 19.085,19.693 21.434,28.384c2.35,8.691 14,26.071 14,26.071Z" style="fill:#d9b97a;"/><path d="M807.001,200.876c0,0 -29.063,-62.81 -44.138,-74.116c-15.075,-11.306 -62.812,-43.968 -62.812,-43.968c0,0 37.687,50.25 59.043,73.281c21.356,23.031 47.907,44.804 47.907,44.804Z" style="fill:#d9b97a;"/><path d="M854.23,426.002c0,0 3.503,51.111 21.316,75.757c7.536,10.426 19.265,20.948 31.106,23.191c11.84,2.243 -0.388,-8.603 -5.631,-24.938c-5.244,-16.334 -3.117,-21.046 -12.213,-33.838c-9.096,-12.791 -22.358,-14.702 -34.578,-40.173Z" style="fill:#d9b97a;"/><path d="M821.503,616.907c0,0 0.496,67.774 0.123,83.321c-0.373,15.548 7.947,33.755 17.652,43.569c9.705,9.814 5.618,-16.111 8.275,-36.229c2.657,-20.119 4.157,-13.75 1.719,-32.669c-2.438,-18.919 -25.106,-32.404 -27.769,-57.992Z"/><path d="M951.052,665.727c0,0 -49.811,45.96 -60.906,56.859c-11.095,10.899 -30.071,17.27 -43.869,16.894c-13.797,-0.376 7.921,-15.112 20.79,-30.803c12.87,-15.691 7.196,-12.432 22.673,-23.584c15.477,-11.152 40.813,-3.821 61.312,-19.366Z"/><path d="M963.832,587.109c0,0 -33.131,46.493 -40.36,57.467c-7.229,10.974 -22.381,18.281 -34.535,18.916c-12.154,0.635 3.496,-14.683 11.189,-30.26c7.693,-15.577 3.47,-12.128 14.475,-23.651c11.005,-11.523 34.832,-6.486 49.232,-22.472Z" style="fill:#d9b97a;"/><path d="M899.514,592.003c0,0 10.992,-36.117 -4.187,-54.437c-15.18,-18.32 -25.125,-24.601 -31.929,-40.304c-6.805,-15.703 -6.281,-13.609 -6.281,-13.609c0,0 14.133,54.961 14.656,73.281c0.523,18.32 5.234,24.601 27.742,35.07Z" style="fill:#d9b97a;"/><path d="M905.799,598.79c0,0 -0.104,-37.752 19.716,-50.914c19.82,-13.161 31.155,-16.306 42.201,-29.377c11.046,-13.072 9.941,-11.218 9.941,-11.218c0,0 -29.39,48.545 -35.177,65.935c-5.787,17.39 -12.11,22.045 -36.681,25.574Z" style="fill:#d9b97a;"/><path d="M851.648,570.48c0,0 -1.847,57.822 -2.753,71.104c-0.906,13.282 6.718,28.533 16.005,36.574c9.287,8.041 6.128,-13.943 9.458,-31.204c3.33,-17.262 4.598,-11.878 2.833,-27.94c-1.765,-16.062 -23.783,-26.787 -25.542,-48.533Z" style="fill:#d9b97a;"/></g></g></g><g><path d="M101.283,557.848l64.439,0l0,-22.415l-39.906,0l0,-89.99l-24.533,0l0,112.406Z" style="fill-rule:nonzero;"/><path d="M245.698,535.433l-39.906,0l0,-22.745l38.271,0l0,-22.415l-38.271,0l0,-22.415l39.906,0l0,-22.415l-64.439,0l0,112.406l64.439,0l0,-22.415Z" style="fill-rule:nonzero;"/><path d="M320.932,467.034c10.794,0 21.916,4.45 27.313,16.317l26.986,0c-7.687,-23.239 -29.766,-39.391 -54.299,-39.391c-31.402,0 -57.243,26.041 -57.243,57.686c0,31.645 25.841,57.686 57.243,57.686c31.729,0 57.079,-25.876 57.079,-57.686l0,-3.791l-54.79,0l0,18.624l28.294,0c-6.051,16.976 -19.79,20.437 -30.584,20.437c-17.664,0 -32.383,-15.987 -32.383,-34.941c0,-18.954 14.72,-34.941 32.383,-34.941Z" style="fill-rule:nonzero;"/><path d="M445.558,514.831l-28.131,0l14.065,-39.979l14.065,39.979Zm41.542,43.017l-45.14,-112.406l-20.771,0l-45.14,112.406l26.332,0l8.014,-22.745l42.36,0l8.014,22.745l26.332,0Z" style="fill-rule:nonzero;"/><path d="M497.73,557.848l64.439,0l0,-22.415l-39.906,0l0,-89.99l-24.533,0l0,112.406Z" style="fill-rule:nonzero;"/><path d="M681.398,512.689l0,-22.415l-38.271,0l0,-22.415l39.906,0l0,-22.415l-64.439,0l0,112.406l24.533,0l0,-45.16l38.271,0Z" style="fill-rule:nonzero;"/><rect x="701.024" y="445.443" width="24.533" height="112.406" style="fill-rule:nonzero;"/><path d="M769.716,517.656l0.164,0l26.495,40.192l31.075,0l-31.892,-41.349c14.065,-3.474 25.35,-16.044 25.35,-35.067c0,-21.321 -16.028,-35.989 -34.019,-35.989l-41.706,0l0,112.406l24.533,0l0,-40.192Zm13.084,-52.765c7.196,0 14.72,6.286 14.72,16.541c0,10.752 -7.523,16.706 -14.72,16.706l-13.084,0l0,-33.247l13.084,0Z" style="fill-rule:nonzero;"/><path d="M973.991,557.848l-21.589,-112.406l-29.112,0l-23.061,78.85l-23.224,-78.85l-29.112,0l-21.589,112.406l26.986,0l13.084,-77.526l21.752,77.526l24.042,0l21.752,-77.526l13.084,77.526l26.986,0Z" style="fill-rule:nonzero;"/></g><g transform="matrix(0.992316,0,0,1,0.036331,0)"><g transform="matrix(77.809166,0,0,77.809166,983.042528,666.51618)"></g><text x="84.969px" y="666.516px" style="font-family:'GlacialIndifference-Bold', 'Glacial Indifference';font-weight:700;font-size:77.809px;">ABOG<tspan x="298.322px " y="666.516px ">A</tspan>DOS ASOCIADOS</text></g><path d="M993.594,585.135l-172.237,3c-23.063,0.371 -184.063,2.962 -288.307,3c-104.999,0.038 -232.655,-1.937 -252.884,-2.25l-215.128,-3.75l215.128,-3.75c20.229,-0.313 147.886,-2.288 252.884,-2.25c104.244,0.038 265.244,2.629 288.307,3l172.237,3Z"/><g><path d="M514.61,261.749c-30.232,-9.737 -50.831,-32.962 -63.723,-66.974c-7.282,54.122 -35.2,78.526 -85.831,70.226c10.045,36.584 0.808,69.092 -37.697,90.071" style="fill:none;stroke:#000;stroke-width:8.33px;"/><path d="M549.357,261.749c30.232,-9.737 50.831,-32.962 63.723,-66.974c7.282,54.122 35.2,78.526 85.831,70.226c-10.045,36.584 5.065,71.05 43.571,92.028" style="fill:none;stroke:#000;stroke-width:8.33px;"/><path d="M524.696,266.817c-0.072,0.381 -0.485,2.565 -2.656,4.047c-0.669,0.457 -1.439,0.797 -2.231,0.966c-1.596,0.341 -1.615,0.225 -3.216,-0.102c-29.174,-5.961 -57.703,-4.168 -85.419,11.683c-0.816,0.467 -0.825,0.451 -0.889,0.502c-1.926,1.566 -28.728,28.592 -62.516,50.783c-24.869,16.333 -43.546,23.585 -53.589,27.115c-0.755,0.265 -0.795,0.271 -1.523,-0.064c-0.015,-0.007 -1.036,-1.11 -1.035,-1.119c0.018,-0.506 -0.15,-1.057 0.062,-1.517c0.21,-0.456 0.693,-0.737 1.108,-1.022c0.528,-0.363 16.949,-5.879 40.202,-20.846c30.979,-19.94 56.613,-45.261 70.347,-59.312c1.386,-1.418 1.42,-1.387 3.103,-2.435c33.543,-20.872 67.012,-20.477 93.198,-16.066c2.533,0.427 3.837,2.338 4.056,2.658c1.483,2.173 1.072,4.349 1,4.729Z"/><path d="M539.074,266.826c-0.072,-0.381 -0.484,-2.566 0.998,-4.739c0.456,-0.669 1.049,-1.265 1.726,-1.71c1.387,-0.911 1.449,-0.803 3.085,-1.075c40.09,-6.663 69.592,1.828 93.143,16.636c1.513,0.951 1.456,1.03 3.273,2.889c44.1,45.136 78.605,67.297 109.018,79.258c0.741,0.291 0.782,0.301 1.115,1.025c0.007,0.015 0.061,1.529 0.055,1.535c-0.341,0.369 -0.572,0.89 -1.028,1.1c-0.458,0.211 -1.009,0.121 -1.51,0.069c-0.236,-0.025 -4.196,-1.516 -4.559,-1.653c-48.253,-18.174 -88.791,-55.388 -110.369,-75.755c-0.918,-0.866 -0.994,-0.76 -2.09,-1.378c-31.324,-17.651 -61.524,-16.093 -85.466,-11.154c-2.499,0.515 -4.416,-0.793 -4.736,-1.011c-2.172,-1.483 -2.583,-3.657 -2.655,-4.037Z"/><path d="M306.896,360.208c32.801,-9.129 57.7,-16.671 94.892,-36.37c19.193,-10.166 36.744,-20.943 38.523,-21.934c0.889,-0.495 4.154,-1.897 4.519,-2.053c36.97,-15.868 58.215,-0.179 79.222,18.544c2.006,1.788 2.096,4.213 2.111,4.619c0.031,0.848 -0.097,1.718 -0.391,2.514c-0.965,2.615 -3.123,3.595 -3.497,3.765c-2.454,1.114 -4.617,0.322 -4.993,0.184c-0.82,-0.3 -1.53,-0.849 -2.242,-1.355c-0.737,-0.523 -10.76,-11.092 -21.237,-17.227c-12.139,-7.109 -26.243,-9.604 -48.274,-0.249c-1.43,0.607 -1.329,0.803 -17.119,9.161c-46.104,24.403 -70.728,33.245 -118.097,45.288c-2.292,0.583 -2.278,0.653 -2.934,0.704c-0.124,0.01 -7.996,-0.372 -15.872,-3.48c-7.659,-3.021 -20.878,-10.426 -24.379,-32.525c-0.185,-1.167 -0.637,-7.156 0.608,-13.077c2.868,-13.639 12.686,-19.305 21.668,-22.145c0.663,-0.21 0.681,-0.418 4.609,-0.322c17.107,0.419 28.553,9.028 25.125,27.794c-0.224,1.224 -0.197,1.285 -2.298,3.8c-3.48,4.164 -10.584,12.219 -18.496,7.924c-0.398,-0.216 -0.539,-0.249 -1.728,-1.322c-4.778,-4.308 -4.608,-6.86 -3.936,-10.078c0.476,-2.282 1.365,-4.732 1.37,-4.739c0.556,-0.648 0.971,-1.517 1.747,-1.873c0.015,-0.007 2.572,-0.103 2.579,-0.097c0.624,0.58 1.511,0.971 1.866,1.745c0.722,1.574 0.409,1.655 -0.15,3.295c-0.912,2.674 -1.057,3.974 -1.094,4.464c-0.009,-0.016 -0.021,-0.028 -0.035,-0.027c0.011,0.021 0.021,0.041 0.033,0.062c-0.002,0.03 -0.004,0.056 -0.005,0.079c0.015,-0.005 0.022,-0.024 0.023,-0.046c0.582,1.043 2.002,2.323 2.554,2.804c0.744,0.402 1.847,0.796 3.879,-0.325c2.809,-1.55 5.918,-5.24 7.502,-7.166c0.634,-3.513 1.583,-10.633 -3.397,-15.314c-5.416,-5.091 -15.299,-5.121 -18.216,-5.106c-10.485,3.222 -19.813,9.279 -18.868,28.159c0.002,0.049 0.66,6.745 3.767,13.268c7.423,15.581 22.796,17.901 30.662,18.656Zm-7.882,-34.975c-0.006,-0.011 -0.012,-0.022 -0.018,-0.033c0.001,-0.011 0.002,-0.023 0.003,-0.035c0.01,0.019 0.016,0.045 0.015,0.068Zm-0.032,0.049l-0.306,0.035c0.104,-0.001 0.209,-0.003 0.306,-0.035Z"/><path d="M769.538,325.165c-0.18,-2.304 -1.359,-5.074 -1.354,-5.197c0.036,-0.854 -0.246,-1.785 0.11,-2.562c0.007,-0.015 1.876,-1.753 1.885,-1.752c0.853,0.032 1.784,-0.253 2.56,0.104c1.497,0.687 1.416,0.878 1.945,2.437c2.45,7.217 1.522,9.249 -0.163,11.478c-0.233,0.308 -1.291,1.708 -3.379,3.454c-1.188,0.993 -3.411,1.886 -5.733,1.858c-5.402,-0.067 -10.111,-4.631 -14.761,-10.417c-0.86,-1.07 -1.066,-1.043 -1.496,-4.017c-2.466,-17.058 7.821,-26.606 27.847,-26.314c0.947,0.014 0.982,-0.089 3.734,0.872c17.269,6.03 21.639,19.104 20.806,33.475c-0.062,1.066 -0.924,7.384 -3.639,13.659c-3.961,9.156 -12.886,21.229 -35.738,23.503c-0.059,0.006 -0.856,0.126 -1.485,-0.025c-5.386,-1.292 -15.159,-3.92 -16.474,-4.274c-45.106,-12.131 -70.001,-22.952 -119.446,-49.922c-0.006,-0.003 -0.415,-0.384 -4.151,-1.863c-31.298,-12.388 -47.208,-0.685 -67.109,18.457c-1.925,1.851 -4.356,1.761 -4.762,1.746c-0.847,-0.031 -1.705,-0.223 -2.476,-0.573c-0.374,-0.17 -2.532,-1.15 -3.497,-3.765c-0.138,-0.375 -0.935,-2.534 0.184,-4.993c0.362,-0.794 0.963,-1.459 1.523,-2.129c0.283,-0.339 4.349,-3.826 4.731,-4.154c20.837,-17.874 42.219,-29.615 77.945,-12.855c1.528,0.717 1.5,0.762 5.19,2.953c20.756,12.326 41.683,24.092 63.473,33.603c24.789,10.82 47.215,17.078 65.829,22.256c11.871,-1.156 30.411,-5.319 34.362,-31.256c0.001,-0.007 0.747,-6.838 -1.181,-13.192c-3.06,-10.084 -11.152,-13.653 -17.613,-15.633c-6.93,0.009 -20.876,0.885 -22.038,13.38c-0.273,2.934 0.141,5.572 0.413,7.031c1.582,1.924 4.695,5.621 7.508,7.173c2.031,1.121 3.135,0.727 3.879,0.325c0.552,-0.481 1.972,-1.761 2.554,-2.804c0.001,0.022 0.008,0.041 0.023,0.046c-0.002,-0.026 -0.003,-0.052 -0.005,-0.078c0.011,-0.021 0.022,-0.042 0.033,-0.062c-0.014,-0.001 -0.027,0.011 -0.036,0.027Zm0,0c0.001,0.012 0.002,0.023 0.003,0.035c-0.006,0.011 -0.012,0.022 -0.018,0.032c-0.001,-0.022 0.005,-0.048 0.015,-0.067Zm0.016,0.116c0.097,0.032 0.202,0.034 0.306,0.035l-0.306,-0.035Z"/><path d="M550.583,391.186l0,8.531c0,2.354 -1.911,4.266 -4.266,4.266l-28.09,0c-2.354,0 -4.266,-1.911 -4.266,-4.266l0,-8.531c0,-2.354 1.911,-4.266 4.266,-4.266l28.09,0c2.354,0 4.266,1.911 4.266,4.266Z"/><path d="M545.381,373.291l0,11.028c0,3.043 -2.471,5.514 -5.514,5.514l-15.19,0c-3.043,0 -5.514,-2.471 -5.514,-5.514l0,-11.028c0,-3.043 2.471,-5.514 5.514,-5.514l15.19,0c3.043,0 5.514,2.471 5.514,5.514Z"/><path d="M550.999,304.314l0,55.348c0,5.168 -4.196,9.363 -9.363,9.363l-18.727,0c-5.168,0 -9.363,-4.196 -9.363,-9.363l0,-55.348c0,-5.168 4.196,-9.363 9.363,-9.363l18.727,0c5.168,0 9.363,4.196 9.363,9.363Z"/><path d="M550.999,282.154l0,9.363c0,2.584 -2.098,4.682 -4.682,4.682l-28.09,0c-2.584,0 -4.682,-2.098 -4.682,-4.682l0,-9.363c0,-2.584 2.098,-4.682 4.682,-4.682l28.09,0c2.584,0 4.682,2.098 4.682,4.682Z"/><path d="M550.999,233.568l0,36.621c0,5.168 -4.196,9.363 -9.363,9.363l-18.727,0c-5.168,0 -9.363,-4.196 -9.363,-9.363l0,-36.621c0,-5.168 4.196,-9.363 9.363,-9.363l18.727,0c5.168,0 9.363,4.196 9.363,9.363Z"/><path d="M543.509,182.59l0,44.112c0,3.101 -2.517,5.618 -5.618,5.618l-11.236,0c-3.101,0 -5.618,-2.517 -5.618,-5.618l0,-44.112c0,-3.101 2.517,-5.618 5.618,-5.618l11.236,0c3.101,0 5.618,2.517 5.618,5.618Z"/><ellipse cx="532.273" cy="174.059" rx="33.084" ry="13.109"/><path d="M531.024,45.406c0,0 34.228,60.803 34.228,79.235c0,18.432 -14.778,33.396 -32.98,33.396c-18.202,0 -32.98,-14.964 -32.98,-33.396c0,-18.432 31.732,-79.235 31.732,-79.235Z"/><g><path d="M750.958,412.563l17.166,-48.313" style="fill:none;stroke:#000;stroke-width:4.17px;"/><path d="M769.523,413.726l0.52,-49.168" style="fill:none;stroke:#000;stroke-width:4.17px;"/><path d="M789.29,413.603l-17.502,-49.372" style="fill:none;stroke:#000;stroke-width:4.17px;"/></g><g><path d="M292.108,412.563l17.166,-48.313" style="fill:none;stroke:#000;stroke-width:4.17px;"/><path d="M310.673,413.726l0.52,-49.168" style="fill:none;stroke:#000;stroke-width:4.17px;"/><path d="M330.44,413.603l-17.502,-49.372" style="fill:none;stroke:#000;stroke-width:4.17px;"/></g></g><g><g><path d="M506.966,875.542c-1.865,-26.387 -13.724,-57.415 -45.747,-97.803c-23.678,-26.926 -49.253,-53.378 -77.239,-79.227c3.47,19.41 8.141,39.02 18.084,59.509c7.9,15.426 16.263,27.605 25.24,35.493c12.618,13.13 24.741,21.801 36.282,25.24c25.206,18.258 35.465,37.45 43.38,56.789Z"/><path d="M547.889,875.542c1.865,-26.387 13.724,-57.415 45.747,-97.803c23.678,-26.926 49.253,-53.378 77.239,-79.227c-3.47,19.41 -8.141,39.02 -18.084,59.509c-7.9,15.426 -16.263,27.605 -25.24,35.493c-12.618,13.13 -24.741,21.801 -36.282,25.24c-25.206,18.258 -35.465,37.45 -43.38,56.789Z"/></g><rect x="485.438" y="708.346" width="16.658" height="47.955"/><rect x="551.343" y="708.346" width="16.658" height="47.955"/><path d="M537.807,709.057l1.292,49.671l-11.856,21.904l-13.626,-20.612l0.646,-51.287l23.543,0.323Z"/><path d="M481.336,745.396l46.037,80.754l45.391,-82.335" style="fill:none;stroke:#000;stroke-width:16.67px;stroke-linecap:butt;stroke-linejoin:miter;stroke-miterlimit:5;"/></g></svg>